<svg width="720" height="620" viewBox="0 0 720 620" fill="none" xmlns="http://www.w3.org/2000/svg">
  <rect width="720" height="620" rx="42" fill="#FCF7EF"/>
  <circle cx="118" cy="118" r="92" fill="#F5E0D8"/>
  <circle cx="604" cy="126" r="78" fill="#DCE8F4"/>
  <circle cx="608" cy="520" r="110" fill="#E5EFE8"/>
  <rect x="78" y="92" width="216" height="196" rx="30" fill="#FFFDF9" stroke="#E7D6CA" stroke-width="2"/>
  <rect x="424" y="180" width="224" height="248" rx="32" fill="#153B63"/>
  <rect x="451" y="214" width="170" height="114" rx="18" fill="#FCF7EF"/>
  <path d="M483 253H589" stroke="#C5603F" stroke-width="12" stroke-linecap="round"/>
  <path d="M535 222V284" stroke="#C5603F" stroke-width="12" stroke-linecap="round"/>
  <path d="M467 366H604" stroke="#9CB9D7" stroke-width="12" stroke-linecap="round"/>
  <path d="M467 392H560" stroke="#9CB9D7" stroke-width="12" stroke-linecap="round"/>
  <path d="M467 418H588" stroke="#9CB9D7" stroke-width="12" stroke-linecap="round"/>
  <path d="M262 325C333 298 353 233 416 214" stroke="#C5603F" stroke-width="10" stroke-linecap="round"/>
  <path d="M392 202L427 212L401 237" stroke="#C5603F" stroke-width="10" stroke-linecap="round" stroke-linejoin="round"/>
  <rect x="112" y="130" width="148" height="120" rx="20" fill="#143B63"/>
  <circle cx="150" cy="170" r="18" fill="#F6EDE1"/>
  <rect x="180" y="157" width="50" height="12" rx="6" fill="#F6EDE1"/>
  <rect x="180" y="179" width="34" height="10" rx="5" fill="#C9D8E6"/>
  <rect x="132" y="212" width="108" height="10" rx="5" fill="#C9D8E6"/>
  <rect x="296" y="440" width="190" height="104" rx="26" fill="#FFFDF9" stroke="#E5D8CC" stroke-width="2"/>
  <rect x="328" y="470" width="126" height="14" rx="7" fill="#143B63"/>
  <rect x="328" y="496" width="90" height="12" rx="6" fill="#C5603F"/>
  <path d="M94 446C146 408 213 409 276 426" stroke="#143B63" stroke-width="6" stroke-linecap="round" stroke-dasharray="8 16"/>
  <path d="M86 470C144 438 220 442 289 459" stroke="#6B8370" stroke-width="6" stroke-linecap="round" stroke-dasharray="8 16"/>
</svg>
