<svg width="720" height="620" viewBox="0 0 720 620" fill="none" xmlns="http://www.w3.org/2000/svg">
  <rect width="720" height="620" rx="42" fill="#F3F8FE"/>
  <circle cx="126" cy="114" r="88" fill="#DCEBFB"/>
  <circle cx="600" cy="126" r="84" fill="#D5E7FB"/>
  <circle cx="594" cy="512" r="114" fill="#E8F1FB"/>
  <rect x="78" y="104" width="224" height="188" rx="28" fill="#FCFEFF" stroke="#CAD9EC" stroke-width="3"/>
  <rect x="116" y="138" width="148" height="112" rx="18" fill="#173B63"/>
  <circle cx="154" cy="176" r="16" fill="#F8FBFF"/>
  <rect x="184" y="164" width="44" height="10" rx="5" fill="#F8FBFF"/>
  <rect x="184" y="184" width="32" height="9" rx="4.5" fill="#C5D9F2"/>
  <rect x="136" y="214" width="104" height="10" rx="5" fill="#C5D9F2"/>
  <path d="M260 330C334 304 366 242 430 214" stroke="#4D8FD6" stroke-width="10" stroke-linecap="round"/>
  <path d="M404 204L438 212L414 238" stroke="#4D8FD6" stroke-width="10" stroke-linecap="round" stroke-linejoin="round"/>
  <rect x="438" y="182" width="222" height="248" rx="32" fill="#173B63"/>
  <rect x="466" y="214" width="166" height="114" rx="18" fill="#F8FBFF"/>
  <path d="M498 254H600" stroke="#173B63" stroke-width="12" stroke-linecap="round"/>
  <path d="M498 286H568" stroke="#4D8FD6" stroke-width="10" stroke-linecap="round"/>
  <path d="M482 364H612" stroke="#C5D9F2" stroke-width="12" stroke-linecap="round"/>
  <path d="M482 392H572" stroke="#C5D9F2" stroke-width="12" stroke-linecap="round"/>
  <path d="M482 420H596" stroke="#C5D9F2" stroke-width="12" stroke-linecap="round"/>
  <rect x="294" y="446" width="202" height="108" rx="28" fill="#FCFEFF" stroke="#CAD9EC" stroke-width="3"/>
  <rect x="328" y="478" width="128" height="14" rx="7" fill="#173B63"/>
  <rect x="328" y="506" width="96" height="12" rx="6" fill="#4D8FD6"/>
  <path d="M92 450C154 406 226 410 290 430" stroke="#5A789A" stroke-width="6" stroke-linecap="round" stroke-dasharray="10 16"/>
  <path d="M88 476C154 440 236 444 308 464" stroke="#9AB6D7" stroke-width="6" stroke-linecap="round" stroke-dasharray="10 16"/>
</svg>
