<svg width="1200" height="760" viewBox="0 0 1200 760" fill="none" xmlns="http://www.w3.org/2000/svg">
  <rect width="1200" height="760" rx="56" fill="#F3F8FE"/>
  <path d="M0 556C154 462 316 442 484 494C654 548 832 658 1200 554V760H0V556Z" fill="#D9E8FA"/>
  <path d="M0 628C190 566 360 572 552 646C726 712 888 734 1200 644V760H0V628Z" fill="#E7F0FB"/>
  <circle cx="194" cy="166" r="112" fill="#DDEBFB"/>
  <circle cx="1004" cy="142" r="96" fill="#D6E7FB"/>
  <rect x="122" y="142" width="320" height="300" rx="40" fill="#FCFEFF" stroke="#C9D8EC" stroke-width="3"/>
  <rect x="744" y="170" width="332" height="350" rx="44" fill="#173B63"/>
  <rect x="784" y="222" width="252" height="144" rx="22" fill="#F8FBFF"/>
  <path d="M840 296L886 248L930 290L992 228" stroke="#4D8FD6" stroke-width="16" stroke-linecap="round" stroke-linejoin="round"/>
  <path d="M838 412H994" stroke="#BED4EE" stroke-width="16" stroke-linecap="round"/>
  <path d="M838 452H970" stroke="#BED4EE" stroke-width="16" stroke-linecap="round"/>
  <path d="M838 492H924" stroke="#BED4EE" stroke-width="16" stroke-linecap="round"/>
  <rect x="176" y="206" width="208" height="176" rx="28" fill="#173B63"/>
  <circle cx="228" cy="254" r="24" fill="#F8FBFF"/>
  <path d="M278 238H338" stroke="#F8FBFF" stroke-width="14" stroke-linecap="round"/>
  <path d="M308 208V270" stroke="#F8FBFF" stroke-width="14" stroke-linecap="round"/>
  <rect x="204" y="316" width="154" height="14" rx="7" fill="#BFD4EE"/>
  <path d="M438 338C548 286 604 230 716 214" stroke="#4D8FD6" stroke-width="12" stroke-linecap="round"/>
  <path d="M684 198L726 212L694 240" stroke="#4D8FD6" stroke-width="12" stroke-linecap="round" stroke-linejoin="round"/>
  <rect x="422" y="548" width="358" height="114" rx="32" fill="#FCFEFF" stroke="#CAD9EC" stroke-width="3"/>
  <rect x="478" y="588" width="156" height="16" rx="8" fill="#173B63"/>
  <rect x="478" y="622" width="114" height="14" rx="7" fill="#4D8FD6"/>
  <path d="M166 568C252 510 354 504 446 532" stroke="#5A789A" stroke-width="8" stroke-linecap="round" stroke-dasharray="12 18"/>
</svg>
