<svg width="900" height="520" viewBox="0 0 900 520" fill="none" xmlns="http://www.w3.org/2000/svg">
  <rect width="900" height="520" rx="36" fill="#F3F8FE"/>
  <circle cx="170" cy="102" r="80" fill="#E2EEFB"/>
  <circle cx="744" cy="114" r="72" fill="#D7E8FB"/>
  <rect x="92" y="144" width="282" height="230" rx="28" fill="#FCFEFF" stroke="#CAD9EC" stroke-width="3"/>
  <rect x="128" y="180" width="210" height="24" rx="12" fill="#173B63"/>
  <rect x="128" y="222" width="152" height="18" rx="9" fill="#4D8FD6"/>
  <rect x="128" y="258" width="184" height="14" rx="7" fill="#C9DBF2"/>
  <rect x="128" y="290" width="166" height="14" rx="7" fill="#C9DBF2"/>
  <rect x="128" y="322" width="122" height="14" rx="7" fill="#C9DBF2"/>
  <rect x="456" y="134" width="290" height="190" rx="30" fill="#173B63"/>
  <rect x="494" y="172" width="214" height="114" rx="18" fill="#F8FBFF"/>
  <path d="M530 214H670" stroke="#173B63" stroke-width="16" stroke-linecap="round"/>
  <path d="M530 246H632" stroke="#4D8FD6" stroke-width="14" stroke-linecap="round"/>
  <path d="M530 276H614" stroke="#C5D9F2" stroke-width="12" stroke-linecap="round"/>
  <path d="M380 378C380 334 416 298 460 298C504 298 540 334 540 378" stroke="#5A789A" stroke-width="14" stroke-linecap="round"/>
  <circle cx="460" cy="378" r="58" fill="#FCFEFF" stroke="#CAD9EC" stroke-width="3"/>
  <path d="M460 346V382L486 400" stroke="#173B63" stroke-width="12" stroke-linecap="round" stroke-linejoin="round"/>
  <rect x="592" y="340" width="180" height="92" rx="24" fill="#FCFEFF" stroke="#CAD9EC" stroke-width="3"/>
  <path d="M656 378H708" stroke="#173B63" stroke-width="14" stroke-linecap="round"/>
  <path d="M682 352V404" stroke="#173B63" stroke-width="14" stroke-linecap="round"/>
  <path d="M94 438H806" stroke="#C5D7EA" stroke-width="6" stroke-linecap="round"/>
</svg>
