<svg width="900" height="520" viewBox="0 0 900 520" fill="none" xmlns="http://www.w3.org/2000/svg">
  <rect width="900" height="520" rx="36" fill="#FBF6EE"/>
  <circle cx="160" cy="110" r="78" fill="#F4DDD2"/>
  <circle cx="756" cy="106" r="68" fill="#DCE7F3"/>
  <rect x="94" y="174" width="276" height="220" rx="28" fill="#FFFDF8" stroke="#E8DACE" stroke-width="2"/>
  <rect x="136" y="218" width="190" height="22" rx="11" fill="#143B63"/>
  <rect x="136" y="258" width="150" height="18" rx="9" fill="#C5603F"/>
  <rect x="136" y="294" width="168" height="14" rx="7" fill="#C7D7E6"/>
  <rect x="136" y="326" width="128" height="14" rx="7" fill="#C7D7E6"/>
  <rect x="470" y="144" width="270" height="182" rx="30" fill="#143B63"/>
  <rect x="510" y="182" width="190" height="108" rx="18" fill="#FBF6EE"/>
  <path d="M548 372C548 326 585 289 631 289C677 289 714 326 714 372" stroke="#6B8370" stroke-width="16" stroke-linecap="round"/>
  <circle cx="631" cy="372" r="54" fill="#F5E3D7"/>
  <rect x="370" y="352" width="184" height="90" rx="26" fill="#FFFDF8" stroke="#E6D7CB" stroke-width="2"/>
  <path d="M435 385H488" stroke="#143B63" stroke-width="14" stroke-linecap="round"/>
  <path d="M462 359V411" stroke="#143B63" stroke-width="14" stroke-linecap="round"/>
  <path d="M86 438H812" stroke="#D7C6BA" stroke-width="6" stroke-linecap="round"/>
</svg>
